<svg xmlns="http://www.w3.org/2000/svg" width="44" height="44" viewBox="0 0 44 44" fill="none">
  <path fill-rule="evenodd" clip-rule="evenodd" d="M7.57085 9.99049C6.37986 11.0964 5.57199 12.899 5.57199 15.7517V28.2517C5.57199 31.1044 6.37986 32.907 7.57085 34.0129C8.781 35.1366 10.6124 35.7517 13.072 35.7517H30.9291C33.3887 35.7517 35.2201 35.1366 36.4303 34.0129C37.6213 32.907 38.4291 31.1044 38.4291 28.2517V15.7517C38.4291 12.899 37.6213 11.0964 36.4303 9.99049C35.2201 8.86678 33.3887 8.25167 30.9291 8.25167H13.072C10.6124 8.25167 8.781 8.86678 7.57085 9.99049ZM5.6267 7.89679C7.54155 6.11871 10.1744 5.39453 13.072 5.39453H30.9291C33.8267 5.39453 36.4596 6.11871 38.3744 7.89679C40.3084 9.69266 41.2863 12.3544 41.2863 15.7517V28.2517C41.2863 31.649 40.3084 34.3107 38.3744 36.1066C36.4596 37.8846 33.8267 38.6088 30.9291 38.6088H13.072C10.1744 38.6088 7.54155 37.8846 5.6267 36.1066C3.69268 34.3107 2.71484 31.649 2.71484 28.2517V15.7517C2.71484 12.3544 3.69268 9.69266 5.6267 7.89679Z" fill="#090909"/>
  <path fill-rule="evenodd" clip-rule="evenodd" d="M32.0465 15.7519C32.5389 16.3684 32.4383 17.2673 31.8219 17.7597L26.2326 22.224L26.2308 22.2254C23.8707 24.1043 20.1148 24.1043 17.7548 22.2254L17.7513 22.2226L17.7513 22.2226L12.1799 17.7583C11.5642 17.2649 11.465 16.3659 11.9583 15.7502C12.4517 15.1345 13.3507 15.0353 13.9664 15.5286L19.5343 19.9901C19.5349 19.9905 19.5354 19.991 19.5359 19.9914C20.8545 21.0396 23.1324 21.0394 24.4505 19.9907C24.4507 19.9905 24.451 19.9903 24.4512 19.9901L30.0388 15.5272C30.6552 15.0349 31.5541 15.1354 32.0465 15.7519Z" fill="#090909"/>
</svg>